<svg width="193" height="193" viewBox="0 0 193 193" fill="none" xmlns="http://www.w3.org/2000/svg">
<path d="M18.0938 114.594L84.4375 90.4688V180.938H18.0938V114.594Z" fill="#FAB400"/>
<path d="M171.891 120.625H51.2656C47.9334 120.625 45.2344 123.324 45.2344 126.656C45.2344 129.989 47.9334 132.688 51.2656 132.688V180.938H171.891V132.688C175.223 132.688 177.922 129.989 177.922 126.656C177.922 123.324 175.223 120.625 171.891 120.625Z" fill="#DC9600"/>
<path d="M84.4375 90.4688L18.0938 114.594V123.641C18.7783 123.641 19.4749 123.523 20.1564 123.276L84.4375 99.9016V90.4688Z" fill="#DC9600"/>
<path d="M174.906 120.625H54.2812V180.938H174.906V120.625Z" fill="#00A0C8"/>
<path d="M84.4375 165.859H72.375C69.0427 165.859 66.3438 163.16 66.3438 159.828V147.766C66.3438 144.433 69.0427 141.734 72.375 141.734H84.4375C87.7698 141.734 90.4688 144.433 90.4688 147.766V159.828C90.4688 163.16 87.7698 165.859 84.4375 165.859Z" fill="#0082AA"/>
<path d="M120.625 165.859H108.562C105.23 165.859 102.531 163.16 102.531 159.828V147.766C102.531 144.433 105.23 141.734 108.562 141.734H120.625C123.957 141.734 126.656 144.433 126.656 147.766V159.828C126.656 163.16 123.957 165.859 120.625 165.859Z" fill="#0082AA"/>
<path d="M156.812 165.859H144.75C141.418 165.859 138.719 163.16 138.719 159.828V147.766C138.719 144.433 141.418 141.734 144.75 141.734H156.812C160.145 141.734 162.844 144.433 162.844 147.766V159.828C162.844 163.16 160.145 165.859 156.812 165.859Z" fill="#0082AA"/>
<path d="M54.2812 132.688H174.906C178.239 132.688 180.938 129.989 180.938 126.656C180.938 123.324 178.239 120.625 174.906 120.625H54.2812C50.949 120.625 48.25 123.324 48.25 126.656C48.25 129.989 50.949 132.688 54.2812 132.688Z" fill="#C80A50"/>
<path d="M18.0937 120.625C15.63 120.625 13.317 119.105 12.4274 116.653C11.2905 113.523 12.9039 110.061 16.0341 108.924L82.3778 84.7994C85.505 83.6655 88.97 85.2758 90.1069 88.4061C91.2438 91.5363 89.6304 94.9982 86.5002 96.1351L20.1564 120.26C19.4749 120.507 18.7783 120.625 18.0937 120.625Z" fill="#C80A50"/>
<path d="M174.906 132.688H54.2812V135.703H174.906V132.688Z" fill="#0082AA"/>
<path d="M144.75 60.3125H168.875L174.906 120.625H138.719L144.75 60.3125Z" fill="#0A5078"/>
<path d="M102.531 60.3125H126.656L132.688 120.625H96.5L102.531 60.3125Z" fill="#0A5078"/>
<path d="M168.875 60.3125H144.75C141.418 60.3125 138.719 57.6135 138.719 54.2812C138.719 50.949 141.418 48.25 144.75 48.25H168.875C172.207 48.25 174.906 50.949 174.906 54.2812C174.906 57.6135 172.207 60.3125 168.875 60.3125Z" fill="#FAB400"/>
<path d="M126.656 60.3125H102.531C99.199 60.3125 96.5 57.6135 96.5 54.2812C96.5 50.949 99.199 48.25 102.531 48.25H126.656C129.989 48.25 132.688 50.949 132.688 54.2812C132.688 57.6135 129.989 60.3125 126.656 60.3125Z" fill="#FAB400"/>
<path d="M168.875 60.3125H144.75L144.448 63.3191C144.548 63.3251 144.65 63.3281 144.75 63.3281H168.875C168.974 63.3281 169.077 63.3251 169.177 63.3191L168.875 60.3125Z" fill="#00325A"/>
<path d="M126.656 60.3125H102.531L102.23 63.3191C102.329 63.3251 102.432 63.3281 102.531 63.3281H126.656C126.756 63.3281 126.858 63.3251 126.958 63.3191L126.656 60.3125Z" fill="#00325A"/>
<path d="M84.4375 162.844H72.375C69.0427 162.844 66.3438 160.145 66.3438 156.812V144.75C66.3438 141.418 69.0427 138.719 72.375 138.719H84.4375C87.7698 138.719 90.4688 141.418 90.4688 144.75V156.812C90.4688 160.145 87.7698 162.844 84.4375 162.844Z" fill="#F0F0F0"/>
<path d="M81.4219 156.812H75.3906C73.726 156.812 72.375 155.462 72.375 153.797V147.766C72.375 146.101 73.726 144.75 75.3906 144.75H81.4219C83.0865 144.75 84.4375 146.101 84.4375 147.766V153.797C84.4375 155.462 83.0865 156.812 81.4219 156.812Z" fill="#0A5078"/>
<path d="M120.625 162.844H108.562C105.23 162.844 102.531 160.145 102.531 156.812V144.75C102.531 141.418 105.23 138.719 108.562 138.719H120.625C123.957 138.719 126.656 141.418 126.656 144.75V156.812C126.656 160.145 123.957 162.844 120.625 162.844Z" fill="#F0F0F0"/>
<path d="M117.609 156.812H111.578C109.914 156.812 108.562 155.462 108.562 153.797V147.766C108.562 146.101 109.914 144.75 111.578 144.75H117.609C119.274 144.75 120.625 146.101 120.625 147.766V153.797C120.625 155.462 119.274 156.812 117.609 156.812Z" fill="#0A5078"/>
<path d="M156.812 162.844H144.75C141.418 162.844 138.719 160.145 138.719 156.812V144.75C138.719 141.418 141.418 138.719 144.75 138.719H156.812C160.145 138.719 162.844 141.418 162.844 144.75V156.812C162.844 160.145 160.145 162.844 156.812 162.844Z" fill="#F0F0F0"/>
<path d="M153.797 156.812H147.766C146.101 156.812 144.75 155.462 144.75 153.797V147.766C144.75 146.101 146.101 144.75 147.766 144.75H153.797C155.462 144.75 156.812 146.101 156.812 147.766V153.797C156.812 155.462 155.462 156.812 153.797 156.812Z" fill="#0A5078"/>
<path d="M102.531 24.125C102.531 20.7927 99.8323 18.0938 96.5 18.0938C95.143 18.0938 93.8885 18.5431 92.8812 19.3C89.5822 14.9062 84.3259 12.0625 78.4062 12.0625H12.0625C12.0625 28.7178 25.5635 42.2188 42.2188 42.2188C49.3809 42.2188 55.9579 39.7218 61.1297 35.5512C63.4246 42.9093 70.2912 48.25 78.4062 48.25C84.3259 48.25 89.5822 45.4063 92.8812 41.0125C93.8885 41.7694 95.143 42.2188 96.5 42.2188C99.8323 42.2188 102.531 39.5198 102.531 36.1875C105.864 36.1875 108.562 38.8865 108.562 42.2188V48.25H120.625V42.2188C120.625 32.225 112.525 24.125 102.531 24.125Z" fill="#D2D2D2"/>
<path d="M96.8016 117.609L96.5 120.625H132.688L132.386 117.609H96.8016Z" fill="#00325A"/>
<path d="M139.02 117.609L138.719 120.625H174.906L174.605 117.609H139.02Z" fill="#00325A"/>
</svg>
