<svg width="175" height="175" viewBox="0 0 175 175" fill="none" xmlns="http://www.w3.org/2000/svg">
<path d="M150.391 90.2344L84.7656 35.5469L19.1406 90.2344V155.859H150.391V90.2344Z" fill="#FAEFDE"/>
<path d="M84.7656 35.5469L19.1406 90.2344V94.8828C19.1406 97.8906 21.6016 100.352 24.6094 100.352C25.9766 100.352 27.0703 99.8047 28.1641 98.9844L83.125 53.3203C84.2188 52.5 85.5859 52.5 86.6797 53.3203L141.641 98.9844C143.828 100.898 147.383 100.625 149.297 98.1641C150.117 97.0703 150.664 95.9766 150.664 94.6094V90.2344L84.7656 35.5469Z" fill="#EFD8BE"/>
<path d="M19.1406 128.516H150.391V155.859H19.1406V128.516Z" fill="#F9DD8F"/>
<path d="M86.4062 36.9141L156.68 94.6094C157.773 95.4297 159.688 95.4297 160.508 94.3359C160.781 93.7891 161.055 93.2422 161.055 92.6953V84.7656C161.055 83.125 160.234 81.4844 159.141 80.6641L88.3203 21.875C86.4062 20.2344 83.3984 20.2344 81.4844 21.875L10.3906 80.3906C9.02344 81.4844 8.20312 82.8516 8.20312 84.7656V92.6953C8.20312 94.3359 9.57031 95.4297 10.9375 95.4297C11.4844 95.4297 12.0312 95.1563 12.5781 94.8828L82.8516 37.1875C83.9453 36.0938 85.5859 36.0937 86.4062 36.9141Z" fill="#CDA1A7"/>
<path d="M43.75 136.719C42.1094 136.719 41.0156 137.812 41.0156 139.453V144.922C41.0156 146.562 42.1094 147.656 43.75 147.656C45.3906 147.656 46.4844 146.562 46.4844 144.922V139.453C46.4844 137.812 45.3906 136.719 43.75 136.719ZM30.0781 136.719C28.4375 136.719 27.3438 137.812 27.3438 139.453V144.922C27.3438 146.562 28.4375 147.656 30.0781 147.656C31.7188 147.656 32.8125 146.562 32.8125 144.922V139.453C32.8125 137.812 31.7188 136.719 30.0781 136.719ZM125.781 136.719C124.141 136.719 123.047 137.812 123.047 139.453V144.922C123.047 146.562 124.141 147.656 125.781 147.656C127.422 147.656 128.516 146.562 128.516 144.922V139.453C128.516 137.812 127.422 136.719 125.781 136.719ZM139.453 136.719C137.812 136.719 136.719 137.812 136.719 139.453V144.922C136.719 146.562 137.812 147.656 139.453 147.656C141.094 147.656 142.188 146.562 142.188 144.922V139.453C142.188 137.812 141.094 136.719 139.453 136.719Z" fill="#8D6C9F"/>
<path d="M84.7656 54.6875C81.8648 54.6875 79.0828 55.8398 77.0316 57.891C74.9805 59.9422 73.8281 62.7242 73.8281 65.625C73.8281 68.5258 74.9805 71.3078 77.0316 73.359C79.0828 75.4102 81.8648 76.5625 84.7656 76.5625C87.6664 76.5625 90.4484 75.4102 92.4996 73.359C94.5508 71.3078 95.7031 68.5258 95.7031 65.625C95.7031 62.7242 94.5508 59.9422 92.4996 57.891C90.4484 55.8398 87.6664 54.6875 84.7656 54.6875Z" fill="#BBDEF9"/>
<path d="M84.7656 51.9531C77.1094 51.9531 71.0938 57.9688 71.0938 65.625C71.0938 73.2812 77.1094 79.2969 84.7656 79.2969C92.4219 79.2969 98.4375 73.2812 98.4375 65.625C98.4375 57.9688 92.4219 51.9531 84.7656 51.9531ZM84.7656 74.375C79.8438 74.375 76.0156 70.5469 76.0156 65.625C76.0156 60.7031 79.8438 56.875 84.7656 56.875C89.6875 56.875 93.5156 60.7031 93.5156 65.625C93.5156 70.5469 89.6875 74.375 84.7656 74.375Z" fill="#8D6C9F"/>
<path d="M68.3594 101.172H101.172V155.859H68.3594V101.172Z" fill="#ED7899"/>
<path d="M90.2344 123.047C88.5937 123.047 87.5 124.141 87.5 125.781V131.25C87.5 132.891 88.5937 133.984 90.2344 133.984C91.875 133.984 92.9688 132.891 92.9688 131.25V125.781C92.9688 124.141 91.875 123.047 90.2344 123.047Z" fill="#8D6C9F"/>
<path d="M155.039 96.7969C157.5 98.7109 160.781 98.4375 162.695 95.9766C163.516 94.8828 164.062 93.7891 164.062 92.4219V84.7656C164.062 82.3047 162.969 79.8438 161.055 78.4766L89.9609 19.9609C86.9531 17.5 82.5781 17.5 79.5703 19.9609L49.2188 44.8437V35.8203C49.2188 34.1797 48.125 33.0859 46.4844 33.0859C44.8438 33.0859 43.75 34.1797 43.75 35.8203V49.4922L38.2812 53.8672V24.8828C38.2812 23.2422 37.1875 22.1484 35.5469 22.1484C33.9062 22.1484 32.8125 23.2422 32.8125 24.8828V57.6953C32.8125 57.9688 32.8125 57.9687 32.8125 58.2422L8.47656 78.4766C6.5625 79.8438 5.46875 82.3047 5.46875 84.7656V92.6953C5.46875 94.8828 6.5625 96.7969 8.75 97.6172C10.6641 98.4375 12.8516 98.1641 14.4922 96.7969L16.4062 95.1562V153.125H8.20312C6.5625 153.125 5.46875 154.219 5.46875 155.859C5.46875 157.5 6.5625 158.594 8.20312 158.594H161.328C162.969 158.594 164.062 157.5 164.062 155.859C164.062 154.219 162.969 153.125 161.328 153.125H153.125V95.1562L155.039 96.7969ZM60.1562 153.125H54.6875H21.875V131.25H65.625V153.125H60.1562ZM71.0938 153.125V103.906H98.4375V153.125H71.0938ZM147.656 153.125H114.844H109.375H103.906V131.25H147.656V153.125ZM147.656 103.906V125.781H103.906V103.906C103.906 100.898 101.445 98.4375 98.4375 98.4375H71.0938C68.0859 98.4375 65.625 100.898 65.625 103.906V125.781H21.875V103.906V90.7812L84.7656 39.1016L147.656 90.7812V103.906ZM88.3203 35C86.4062 33.3594 83.3984 33.3594 81.4844 35L10.9375 92.6953V84.7656C10.9375 83.9453 11.2109 83.125 12.0313 82.5781L83.125 24.0625C84.2188 23.2422 85.5859 23.2422 86.6797 24.0625L157.773 82.5781C158.32 83.125 158.867 83.9453 158.867 84.7656V92.6953L88.3203 35Z" fill="#8D6C9F"/>
<path d="M57.4219 136.719C55.7812 136.719 54.6875 137.812 54.6875 139.453V144.922C54.6875 146.562 55.7812 147.656 57.4219 147.656C59.0625 147.656 60.1562 146.562 60.1562 144.922V139.453C60.1562 137.812 59.0625 136.719 57.4219 136.719ZM112.109 136.719C110.469 136.719 109.375 137.812 109.375 139.453V144.922C109.375 146.562 110.469 147.656 112.109 147.656C113.75 147.656 114.844 146.562 114.844 144.922V139.453C114.844 137.812 113.75 136.719 112.109 136.719Z" fill="#8D6C9F"/>
</svg>
